<?xml version="1.0" encoding="utf-8"?>
<!-- Generator: Adobe Illustrator 16.0.0, SVG Export Plug-In . SVG Version: 6.00 Build 0)  -->
<!DOCTYPE svg PUBLIC "-//W3C//DTD SVG 1.1//EN" "http://www.w3.org/Graphics/SVG/1.1/DTD/svg11.dtd">
<svg version="1.1" id="Layer_1" xmlns="http://www.w3.org/2000/svg" xmlns:xlink="http://www.w3.org/1999/xlink" x="0px" y="0px"
	 width="349.499px" height="252.323px" viewBox="0 0 349.499 252.323" enable-background="new 0 0 349.499 252.323"
	 xml:space="preserve">
<g>
	<path d="M39.625,19.386c0.047,0,72.613-18.232,135.333-18.232c62.693,0,135.336,18.232,135.387,18.232
		c26.715,6.143,43.387,32.761,37.193,59.573c-4.533,19.504-20.033,33.642-38.462,37.441l-58.797-40.17
		c-1.118-6.337-1.024-12.966,0.488-19.695c0.924-3.9,2.29-7.509,3.997-10.92c-22.155-2.437-50.554-4.583-79.807-4.583
		c-29.25,0-57.598,2.146-79.78,4.583c1.728,3.411,3.093,7.021,3.997,10.92c1.51,6.729,1.634,13.357,0.536,19.695L10.543,96.803
		c-3.803-5.263-6.605-11.212-8.142-17.844C-3.765,52.147,12.911,25.529,39.625,19.386z M234.679,49.125
		c12.333,49.533,41.488,92.338,81.075,121.979v81.22H34.189v-81.22c39.583-29.641,68.763-72.445,81.096-121.979
		c6.388-0.486,13.07-1.071,19.942-1.46v20.669h79.466V47.665C221.566,48.053,228.292,48.639,234.679,49.125z M236.29,150.139
		c0-33.832-27.422-61.331-61.331-61.331c-33.856,0-61.328,27.499-61.328,61.331c0,33.833,27.472,61.327,61.328,61.327
		C208.868,211.466,236.29,183.972,236.29,150.139z M214.693,150.139c0,21.938-17.797,39.685-39.734,39.685
		c-21.911,0-39.708-17.746-39.708-39.685c0-21.938,17.797-39.684,39.708-39.684C196.896,110.455,214.693,128.202,214.693,150.139z"
		/>
</g>
</svg>
