<?xml version="1.0" encoding="UTF-8" standalone="no"?>
<!-- Created with Inkscape (http://www.inkscape.org/) -->

<svg
   xmlns:dc="http://purl.org/dc/elements/1.1/"
   xmlns:cc="http://creativecommons.org/ns#"
   xmlns:rdf="http://www.w3.org/1999/02/22-rdf-syntax-ns#"
   xmlns:svg="http://www.w3.org/2000/svg"
   xmlns="http://www.w3.org/2000/svg"
   xmlns:sodipodi="http://sodipodi.sourceforge.net/DTD/sodipodi-0.dtd"
   xmlns:inkscape="http://www.inkscape.org/namespaces/inkscape"
   width="76.396141"
   height="94.464722"
   id="svg13095"
   version="1.1"
   inkscape:version="0.48.3.1 r9886"
   sodipodi:docname="seaurchin.svg">
  <defs
     id="defs13097" />
  <sodipodi:namedview
     id="base"
     pagecolor="#ffffff"
     bordercolor="#666666"
     borderopacity="1.0"
     inkscape:pageopacity="0.0"
     inkscape:pageshadow="2"
     inkscape:zoom="0.35"
     inkscape:cx="127.64329"
     inkscape:cy="-143.02631"
     inkscape:document-units="px"
     inkscape:current-layer="layer1"
     showgrid="false"
     inkscape:window-width="1366"
     inkscape:window-height="744"
     inkscape:window-x="0"
     inkscape:window-y="24"
     inkscape:window-maximized="1"
     fit-margin-top="0"
     fit-margin-left="0"
     fit-margin-right="0"
     fit-margin-bottom="0" />
  <metadata
     id="metadata13100">
    <rdf:RDF>
      <cc:Work
         rdf:about="">
        <dc:format>image/svg+xml</dc:format>
        <dc:type
           rdf:resource="http://purl.org/dc/dcmitype/StillImage" />
        <dc:title></dc:title>
      </cc:Work>
    </rdf:RDF>
  </metadata>
  <g
     inkscape:label="Layer 1"
     inkscape:groupmode="layer"
     id="layer1"
     transform="translate(-125.32901,-510.84415)">
    <flowRoot
       xml:space="preserve"
       id="flowRoot5209"
       style="font-size:40px;font-style:normal;font-weight:normal;line-height:125%;letter-spacing:0px;word-spacing:0px;fill:#000000;fill-opacity:1;stroke:none;font-family:Sans"
       transform="translate(-435.44948,-151.19697)"><flowRegion
         id="flowRegion5211"><rect
           id="rect5213"
           width="123.23861"
           height="86.873116"
           x="-62.629459"
           y="42.209637" /></flowRegion><flowPara
         id="flowPara5215">rhetorical raptorrhetorical raptorR</flowPara></flowRoot>    <path
       style="fill:#000000"
       d="m 146.0683,599.42577 c -0.26951,0.15183 -0.39697,-0.0638 -0.81793,-0.0892 -0.97694,-0.0587 -0.8778,0.0152 -0.98475,-0.68608 0,0 -1.04447,-1.67092 -1.24883,-1.87528 -0.20436,-0.20436 -0.30276,-1.75998 -0.21866,-3.45695 0.12108,-2.44309 0.3833,-3.27279 1.25961,-3.98565 1.10215,-0.89655 1.10815,-0.89066 1.45789,1.43111 0.3046,2.02206 0.18678,2.52677 -0.88804,3.80412 -0.68158,0.81001 -0.52985,0.64429 -0.52985,0.94849 l 0.32808,2.94192 c 0.0555,0.49774 0.78178,-1.09529 1.21237,-1.45265 0.64705,-0.537 0.83737,-0.50775 1.0969,0.16861 0.34739,0.90527 0.15326,1.62756 -0.44252,1.96317 l 0.6806,0.86971 c 0.34453,-0.22334 0.76704,-0.34011 1.3286,-0.39466 0.88435,-0.0859 1.86997,-0.47195 2.19026,-0.85788 0.32028,-0.38593 0.90819,-0.57666 1.30642,-0.42383 0.39825,0.15282 0.75789,-0.032 0.79922,-0.41076 0.0413,-0.37874 0.11048,-1.03114 0.15369,-1.44979 0.0432,-0.41864 -2.61416,-2.53727 -3.80683,-2.53727 -0.64802,0 -0.61036,-5.01335 0.0668,-8.90227 0.4975,-2.85683 0.90282,-3.56842 4.3594,-7.65338 2.096,-2.47705 4.51728,-5.5313 5.38061,-6.78725 0.86333,-1.25595 1.74282,-2.40303 1.95443,-2.54909 0.41566,-0.28688 3.37425,-6.2312 4.54036,-9.12237 0.46825,-1.16094 0.71327,-3.70939 0.70746,-7.35809 -0.008,-5.22826 -0.11907,-5.83597 -1.74731,-9.5898 -0.95614,-2.20429 -1.82427,-3.75026 -1.92919,-3.43549 -0.10493,0.31477 0.45471,2.11828 1.24362,4.00781 1.27672,3.05784 1.42626,3.99331 1.36036,8.51003 -0.11297,7.74413 -1.91943,12.2096 -8.31407,20.55191 -2.24636,2.93055 -5.50255,7.2295 -7.236,9.55322 l -3.1517,4.22496 -0.3138,-1.68769 c -0.30685,-1.65034 -0.31526,-1.64063 -0.38058,0.43905 -0.0368,1.16971 -0.31044,2.2773 -0.6082,2.46133 -0.29777,0.18404 -0.49906,0.0263 -0.44733,-0.35064 0.18739,-1.36513 -0.0363,-2.46133 -0.50231,-2.46133 -0.26187,0 -0.43314,0.5138 -0.38059,1.14177 0.0526,0.62798 -0.13282,1.24566 -0.41192,1.37264 -0.46092,0.20968 -1.77609,2.35843 -1.77609,2.90181 0,0.12412 0.22835,0.0846 0.50745,-0.088 0.2791,-0.1725 0.50746,-0.0984 0.50746,0.16459 0,0.26302 -0.43905,0.59303 -0.97568,0.73336 -0.79384,0.20759 -0.95933,0.005 -0.88804,-1.08259 0.0662,-1.01088 -0.13787,-1.31909 -0.83531,-1.26144 -0.67376,0.0557 -0.82739,-0.14979 -0.56905,-0.76118 0.68027,-1.60995 0.84495,-3.12102 0.34013,-3.12102 -0.27995,0 -0.663,1.02693 -0.85122,2.28205 -0.37054,2.47105 0.0439,3.89755 0.7901,2.71981 0.3233,-0.51023 0.43826,-0.41033 0.44402,0.38584 0.005,0.70816 -0.72732,1.55701 -2.14891,2.49042 -1.18617,0.77884 -3.62072,2.92146 -5.4101,4.76138 -1.78938,1.83993 -2.96974,2.81197 -2.62302,2.16008 0.34671,-0.65188 0.51716,-1.29847 0.37875,-1.43689 -0.13842,-0.1384 0.0714,-1.02493 0.46634,-1.97005 0.3949,-0.94513 0.71799,-2.82392 0.71799,-4.17509 0,-2.4546 0.005,-2.46269 6.62718,-9.45577 6.03242,-6.37095 10.47424,-12.28103 13.10374,-17.43527 3.92299,-7.68971 7.08002,-22.87802 6.39522,-30.76715 -0.25971,-2.99207 -0.17102,-3.79491 0.47882,-4.33423 0.68578,-0.56915 0.80601,-0.49317 0.8577,0.54198 0.0331,0.66215 0.0178,1.51226 -0.0339,1.88915 -0.0518,0.37689 0.14955,0.53467 0.44732,0.35064 0.30775,-0.1902 0.54139,0.0637 0.54139,0.5882 0,0.50752 0.45671,1.208 1.01491,1.55661 0.5582,0.34859 1.01491,1.01805 1.01491,1.48768 0,0.73916 -0.0977,0.72154 -0.72702,-0.13115 -0.52074,-0.70556 -0.88442,-0.83012 -1.28181,-0.43905 -0.4,0.39368 -0.21428,0.91342 0.66563,1.86286 1.31271,1.41643 2.35813,1.07366 2.35813,-0.77319 0,-0.77314 0.24879,-0.65667 1.32211,0.6189 0.72716,0.86419 2.33568,2.16524 3.57449,2.89122 1.85182,1.08525 2.62638,1.26017 4.35553,0.98366 3.15683,-0.50479 5.87298,-2.23278 6.57911,-4.18555 l 0.60525,-1.67378 -0.33691,-1.03125 0.26991,-3.36242 c 0.16147,-2.0116 0.54614,-3.54065 0.95752,-3.80605 1.13215,-0.7304 4.02451,-1.34911 7.79198,-1.66679 1.95369,-0.16473 5.21545,-0.56032 7.24834,-0.87906 3.55995,-0.55818 3.74219,-0.53628 4.94567,0.59434 0.68724,0.64562 1.37933,1.04406 1.53798,0.88541 0.71484,-0.71483 -0.56807,-4.25534 -2.1941,-6.05516 -2.73471,-3.02701 -5.5743,-4.09254 -11.53789,-4.32952 -2.79101,-0.11091 -6.50176,-0.56793 -8.24614,-1.0156 -2.8327,-0.72699 -3.17897,-0.95502 -3.24069,-2.13414 -0.0625,-1.19485 -0.09,-1.21178 -0.28903,-0.17841 -0.24466,1.27028 -2.17914,1.63473 -2.17914,0.41053 0,-0.40217 -0.25282,-0.88748 -0.56182,-1.07845 -0.37826,-0.23378 -0.44973,0.006 -0.21874,0.73373 0.425,1.33907 -0.7186,1.90312 -2.22451,1.09718 -0.5816,-0.3113 -1.05456,-0.35318 -1.05456,-0.0934 0,0.25905 0.36824,0.61232 0.81832,0.78504 1.39261,0.53438 -0.15667,1.87315 -1.76444,1.5247 -0.88251,-0.19127 -1.11499,-0.13214 -0.68344,0.17386 0.48603,0.34466 0.52226,0.81017 0.14109,1.81274 -0.28208,0.74194 -0.38859,1.67287 -0.2367,2.06874 0.167,0.43517 -0.13958,0.8517 -0.77541,1.0535 -0.57839,0.18358 -1.0516,0.55478 -1.0516,0.82488 0,0.29245 0.42814,0.26199 1.05836,-0.0753 0.58211,-0.31153 1.10793,-0.49083 1.1685,-0.39845 1.5329,2.3382 1.69217,2.82891 1.20236,3.70417 -0.43235,0.77255 -0.37855,0.88347 0.30188,0.62237 1.04201,-0.39985 2.44264,2.12218 2.51064,4.52078 0.0444,1.56579 -1.26295,3.75329 -2.2431,3.75329 -1.08645,0 -3.94833,-3.28302 -4.74491,-5.44314 -0.49131,-1.33233 -1.72326,-3.84201 -2.73766,-5.57708 -1.90387,-3.2565 -3.71997,-4.56232 -5.54121,-3.98429 -0.5936,0.1884 -1.24284,-0.005 -1.64489,-0.48909 -1.2684,-1.52832 -2.34404,-1.78316 -4.21928,-0.99964 -0.98301,0.41073 -1.93926,0.99268 -2.12502,1.29323 -0.18574,0.30054 -0.90016,0.76028 -1.58759,1.02165 -0.68744,0.26135 -1.12768,0.67292 -0.97832,0.91459 0.14935,0.24166 -0.15357,1.32677 -0.67316,2.41135 -0.51958,1.08459 -1.34708,3.68464 -1.83887,5.77788 -0.49179,2.09325 -1.04315,4.09602 -1.22524,4.4506 l -0.41176,1.59545 -0.35068,1.92466 c -0.44133,2.42228 -2.74479,6.56616 -5.7092,10.27077 -3.09158,3.86353 -4.56857,7.6028 -5.46368,13.83231 -0.41286,2.87327 -0.88385,5.795 -1.04667,6.49275 -0.16281,0.69774 -0.6117,2.9813 -0.99755,5.07454 -0.38583,2.09325 -1.26957,6.08946 -1.96384,8.88045 -1.4187,5.70321 -1.91218,10.12789 -1.48564,13.32068 0.40609,3.03976 1.61862,2.85403 3.31279,-0.50745 1.32264,-2.6243 1.34318,-2.63932 1.37359,-1.00482 0.017,0.91262 -0.5357,3.05367 -1.22818,4.75788 -0.6925,1.70422 -1.13573,3.29817 -0.98497,3.54211 0.51842,0.83882 1.56624,0.44133 2.26158,-0.85793 0.6841,-1.27825 8.61906,-8.34019 9.37124,-8.34019 0.21116,0 0.22401,1.41356 0.0285,3.14126 -0.25646,2.26682 -0.71224,3.56534 -1.63726,4.66467 -1.16796,1.38804 -1.20723,1.57799 -0.4419,2.13762 0.77619,0.56756 1.15447,0.34573 0.30294,0.97753 l 0.34323,0.43381 c 0.63796,-0.6883 1.03415,-1.20182 1.26735,-1.62704 0.32061,-0.58463 0.96178,-0.18522 1.90128,0.66501 0.81257,0.73536 0.93051,0.90426 -0.54762,2.59662 l 0.58333,0.9238 c 0.26494,-0.13741 0.49894,-0.21202 0.69114,-0.21202 1.28253,0 2.8703,-1.54312 3.91597,-3.8059 0.28614,-0.61919 0.26121,-0.7675 0.66243,-1.0276"
       id="path7127"
       inkscape:connector-curvature="0"
       sodipodi:nodetypes="cscssssscsssccsssccsssssssscsssscsscssssssssscsssssssscsssssscccsssssssssssccssssscsssssssscsssssccsscsscsssscscscssccsssssssscscsscssccssccssc" />
  </g>
</svg>
